<mxfile host="app.diagrams.net" modified="2023-12-04T15:27:49.949Z" agent="Mozilla/5.0 (Windows NT 10.0; Win64; x64) AppleWebKit/537.36 (KHTML, like Gecko) Chrome/119.0.0.0 Safari/537.36 Edg/119.0.0.0" etag="AB968psAccoj6IhWcrrq" version="22.1.5" type="device">
  <diagram id="C5RBs43oDa-KdzZeNtuy" name="Page-1">
    <mxGraphModel dx="1386" dy="751" grid="0" gridSize="10" guides="1" tooltips="1" connect="1" arrows="1" fold="1" page="1" pageScale="1" pageWidth="827" pageHeight="1169" background="#FFFFFF" backgroundImage="{&quot;src&quot;:&quot;data:image/jpeg;base64,/9j/4AAQSkZJRgABAQACWAJYAAD/2wBDAAgGBgcGBQgHBwcJCQgKDBQNDAsLDBkSEw8UHRofHh0aHBwgJC4nICIsIxwcKDcpLDAxNDQ0Hyc5PTgyPC4zNDL/wAALCAPAB4ABASIA/8QAGwABAQEBAQEBAQAAAAAAAAAAAAEDAgQFBgf/xAAyEAEBAAIBAgQFAwMEAwEBAAAAEQECAwQxBSEycRJBQmGBUZGhIkNyBjNSYhOCsdGS/9oACAEBAAA/AP6hCEIQhCEIQhEAhAIQAACJCEIQhCEI6xvtjtl3jl/XH7O8b65+bohCEIQhCEIQhCEIQhCESEIQhCEIQhCEIkIQhCEIQhCEIQhCEIQhCJCEIQhCEIQhCEIkIQhCEIQhCEIQhCEIQhEhCEIQhCEIQhEixIQhCEIQhCEIQhCEIQhCJCEIQhCEIQhCEIkIQhCEIQhCEIQhCEIQhEhCEIQhCEIQhCESOwIQAhCEIkIQhCEIQhACEAIQAhCEIQi4znGfLMd45dsd/N3jl1z38neM4z2zSEIQhCEIQhCEIQhCESEIQhCEIQhCEIRIQhCEIQhCEIQhCEIQhCESEIQhCEIQhCEIRIQhCEIQhCEIQhCEIQhCJCEIQhCEIQhCEIkIQhCEIQhCEIQhCEIQiQhCEIQhCEIQhCJCEIQhCEIQhCEIQhCEIQiQhCEIQhCEIQhFhCEIQAhACEAAAhCEIQiQhCAEIQCEA7Z8neOTbHzvu7xzY+eHeN9dvnh1CEIQhCEIQhCEIQhEhCEIQhCEIQhCESEIQhCEIQhCEIQhCEIQiQhCEIQhCEIQhCJCEIQhCEIQhCEIQhCEIRIQhCEIQhCEIQhEhCLEhCEIQhCEIQhCEIQiQhCEIQhCEIQhCJCEIQhCEIQhCEIQhCEIRIQhCEIQhCEIRSEIQhCEIQhEhCEIAQgEIQBIQhCEIQhCEIQhACOsbba9s5d45s/PFaY5dM/b3d4me0IQhCEIQhCEIQhCJCEIQhCEIQhCEIkIQhCEIQhCEIQhCEIQhEhCEIQhCEIQhCESEIQhCEIQhCEIQhCEIQiQhCEIQhCEIQhEhCEIQhCEIQhCEIQhCEIRIQhCEIQhCEIQiQhCEIQhCEIQhCEIQhCEIkIQhCEIQhCAEIAQgAAJCEIQhCEIQAhACEAIQhCEIQhCJFxcdsx3jl3x3mWmObXPfEaY2127ZwsIQhCEIQhCEIRIQhCEIQhCEIQhEhCEIQhCEIQhCEIQhCEIkIQhCEIQhCEIQiQhFiQhCEIQhCEIQhCEIQhEhCEIQhCEIQhEhCEIQhCEIQhCEIQhCEIkIQhCEIQhCEIQiQhCEIQhCEIQhCEIQhCEIkIQhCEIQiQhCEIQhCEAIQAhACEIQhCEIQhCEIQiAQgEIAADrHJvr2y0xz/8sfs015NNvnPd3CEIQhCEIQhCJCEIQhCEIQhCEIkIQhCEIQhCEIQhCEIQhEhCEIQhCEIQhCJCEIQhCEIQhCEIQhCEIQiQhCEIQhCEIQhEhCEIQhCEIQhCEIQhCEIRIQhCEIQhCEIQhEhCEIQhCEIQhCEIQhCEIkIQhCEIRCEAAAhCEIQiQhCEAIQAhACEIQiQhCEIQhCEAIQAi4ztr2znDTXn2x3xjLTXn0z3uGmM427ZxlYQhCEIQhCEIkIQhCEIQhCEIkIRYkIQhCEIQhCEIQhCEIRIQhCEIQhCEIRIQhCEIQhCEIQhCEIQhCJCEIQhCEIQhCEIkIQhCEIQhCEIQhCEIQhCJCEIQhCEIQhCEIkIQhCEIQhCEIQhCEIQhEhCEIQjmEIQgBCAEIAkIQhCEIQhCEIQgBCAEIAABCEIQhEhCEDzx2aa8u+vzvu016jH1a/s013027Zw7hCEIQhCESEIQhCEIQhCESEIQhCEIQhCEIQhCEIQhCJCEIQhCEIQhCEIkIQhCEIQhCEIQhCEIQhEhCEIQhCEIQhCESEIQhCEIQhCEIQhCEIQiQhCEIQhCEIQhCJCEIQhCEIQhCEIQhCEIRIQhCEcgCQhCEIQhCEAIQgEIAQhCEIQhCEIkIQhACEAhCAJCEIQhCEda77a9tstdeozj1YxlprzaZ+c92mJnzxmrCEIQhCJCEIQhCEIQhCEIRIQhCEIQhCEIQhCEIQiQhCEIQhCEIQhCJCEIQhCEIQhCEIQhCEIQiQhCEIQhCEIQhCJCEIQhCEIQhCEIQhCEIRIQhCEIQhCEIQhEhCEIQhCEIQhCEIQhCEIkIQjgIQCEIAQhCEIQhCEIQhCIBCAEIAACQhCEIQhCEAIQAhACGM5xnyznDTXn3x3zfdrr1GufVjOGuu+u3bbGXUIQhCEIRIQhCEIQhCEIQhEhCEIQhCEIQhCEIQhCJCEIQhCEIQhCEIRIQhCEIQhCEIQhCEIQiQhCEIQhCEIQhCJCEIQhCEIQhCEIQhCEIQhEhCEIQhCEIQhEhCLEhCEIQhCEIQhCEIQhEhHEIQhEhCEIAQgBCAEIQhEhCEIQhCEIAQgBCAEIQhCEIQhCEIQhEAhB3ry769tstdepz9Wv7Ndebj2+c92kvYhCEIQiQhCEIQhCEIQhCESEIQhCEIQhCEIQhCEIkIQhCEIQhCEIQiQixIQhCEIQhCEIQhCEIkWJCEIQhCEIQhCJCEIQhCEIQhCEIQhCEIkIQhCEIQhCEIkIQhCEIQhCEIQhCEIQhCESM4QBIQhCEIQhCEIQhCAEIBCAAAQhCEIRIQhCAEIAQgBCEIRIQhCEIQjrXbbXtnOGuvUb474xlrr1Gme+M4a65127ZxlYQhCEIRIQhCEIQhCEIQhCJCEIQhCEIQhCEIQhCJCEIQhCEIQhCEIRIQhCEIQhCEIQhCEIQiQhCEIQhCEIQhCESEIQhCEIQhCEIQhCESEIQhCEIQhCEIQiQhCEIQhCEIQhCEIRMzGLnMZb9TxafVfYhCEAIQAhACEIQhCEIQiQhCEAIQAhAEhCEIQhCEIQhCEAIQAhAAAIdu2WmvNya/Vfdrr1WPq1/Zrry8e3bbDSEIQhCESEIQhCEIQhCEIQiQhCEIQhCEIQhCEIQhEhCEIQhCEIQhCESEIQhCEIQhCEIQhCEIkIQhCEIQhCEIkWJCEIQhCEIQhCEIQhCEIkIQhCEIQhCEIQiQhCEIQhCEIRxvyaaerbGGG/W8ePTjO38MN+s5du019mG2222bttnPvlH04QhCEIQhCEIQiAQgBCAAAkIQhCEIQhACEIBCAEIQhCEIQhCJCEIQAhAIQg615N9O22cNdeq2x6sYy216jj275zj3a4zjbFxmrCEIQhEhCEIQhCEIQhCESEIQhCEIQhCEIQhCEIRIsSEIQhCEIQhCESEIQhCEIQhCEIQhCEIkIQhCEIQhCEIQhEhCEIQhCEIQhCEIQhEhCEIQhCEIQhCEIkIQhCGZjzznGGO/U8On1XP283n367P0afnLDfqOXfvvn2x5MgB9OEIBCAEIQhEhCEIQhCEIQAhAIQgBCEIQhCEIQhCEIgEIAQgAAJCEIQhCEIQBcZzjzxnOGuvUcmvfN922vVa59WucNdd9N/TtjLuEIQhCJCEIQhCEIQhCEIRIQhCEIQhCEIQhCEIQiQhCEIQhCEIQhCJCEIQhCEIQhCEIQhCESEIQhCEIQhCEIQiQhCEIQhCEIQhCEIQhEhCEIQhCEIQhCEcb8mmnq3xh59+u49fTjO38PPv1vLt6cY1Ybb77+e22c++XIAA+nCEIQhCEIBCEAhCAABCEIQiQhCEAIQAhACEIQiQhCEIQhCEAIQAhACEIQhCEIQiNNeXk07bZ/LbXq8/XrfZtrz8e31T3aYmeywhCEIRIQhCEIQhCEIQhEhCEIQhCEIQhCEIQhCJCEIQhCEIQhCEIRIQhCEIQhCEIQhCEIRIQhCEIQhCEIQhCJCEIQhCEIQhCEIQhCESEIQhCEIZmO/kx36rh0773P283m36/5aafnLz79Tzb9984x+mPJl375SEIQgAD6hCEAhCEIQhCEIRIQhAIQhAhCAkIQhCEIQhCEIQhAIQgQhCAAEIQhCESEIQgBCAEIAQhF12219O2cNteq317zZtr1XHnvjOrbXbXfz12xl1CEIQiQhCEIQhCEIQhCESEIQhCEIQhCEIQhCEIkIQhCEIQhCEIQiQixIQhCEIQhCEIQhCEIkWJCEIQhCEIQhCJCEIQhCEIQhCEIQhCESEI53300899tce+Xn36/i18tcZ2/h5t+v5dvTjGv8vPvyb7+e++c++XMIQhCEIQiQhCEfVhCEIQiBCEAhCAAESEIQhCEIQgEIQCEIBCEIQhCEIRIQhCAQhAIQgJCEIQhCEIQhCEIBCEA7eeGuvUcun1XH3ba9Zj69P2b6c3Hv22x+WkIQhCESLEhCEIQhCEIQhEhCEIQhCEIQhCEIQhCJCEIQhCEIQhCEIkIQhCEIQhCEIQhCEIQiQhCEIQhCEIQhCESEIQhCEIQhCEIROzLfquHj774zn9Meby7+I47cen52effq+ffvvnGP0x5MM5znNz5gAAAESEIQj6sAhCEIkIQhCEIQhAIQhAhCAQhCEIQhCEIQhCEQhCECEIAAJCEIQhCEIQgEIQIQhAIQhCEIQhCJCEd68m+np2zhtr1m+PVrjP8N9eq4tu+c6+7bGcbYuM4z7LCEIQiQhCEIQhCEIQhCESEIQhCEIQhCEIQhCESEIQhCEIQhCEIQiQhCEIQhCEIQhCEIQhEhCEIQhCEIQhCESEIQhCEIQjnffTTF32xr75ebk6/h18tbtn7PNyeIcu3oxjX+Xm35eTk9e+c/lwAAAAABCEI+pCEIBCECEIQAAhCEIQiQhCEAhCAQhAIQhCJCEIQhCEIQCEIBCEAhCEIQhCEIQhCEQIQgEIQAAMZzrm4znHs206rl175+L3b69Zpn1a5x7NtOTj39O+MtIQhCESEIQhCEIQhCESLEhCEIQhCEIQhCEIQhCESEIQhCEIQhCEIRIQhCEIQhCEIQhCEIQiQhCEIQhCEIQhCESEIRjydVwcfq5MX9MebzcniWO3Hx375eXk6zn5Pr+HH6a+TDOc5zc5znP3IQiQhCEAAAAAB9WEIQhCEIQiQhCEAhCAQhASEIQhCEIQhCEIQCEIQIQgAAQhCEIRIQhCAQhAhCAQhCESEIQhCEIQhAIQgQjTTm5NO22fbLbTrM49et9m+nUcW31TP3a4zjPbzUAAAAAASEIQhCEIQhCEIQhCEIRIQhCEIQhCEIQhCJCEIQhCEIQhCEIQhCESEIQhCEIQhCEc7b6aYu22NffLzcniHBp5a5zvn7YeXk8S5NvLTXGv85ebk5uTl9e+2fyzSEIQhCEIQhCEIQgAAAPrRAhCBCEIAARIQhCEIQhCAQhAIQgEIQhCEIQhEhCEIBCEAhCAkIQhCEIQhCEIQgEIQCEIAAEIQhCJCEI612219O2cezXXq+TXvNm+vVaZ73Vtrvrv6dsZdAAAAAAAAAAAAAAAAAAAJCEIQhCEIQhCEIQhCEIkIQhCEIx5Op4eL1cmL+mPN5eTxPXHlx8ec/fPk8vJ13Pv9Xw4/6vPnOds3Oc5z90AAAIQhCEIQhCESEIQAB9aESEIQhCEIQgEIQCEIBCEIQhCEIQhCEIgQhAIQgAAkIQhCEIQhAIQhAhCAQhCEIQhCEIkIQhAIQgQhCAkIQhF7dstNefk17bX3ba9X/wAtf2ba8/Hv22x+WgAAAAAAAAAAAAAAAAAAAAAAAAAAONt9dMXbbGMffLzcniHBp5YznfP2w83J4nybeWmmuv3z5vLyc/Ny+vkzn7XyZxAAAAAAAASEIQhCEIQj60IQIQgAAQhCEIRIQhCAQhAhCEAhCEIkIQhCEIQhAIQgEIQCEIQhCEIQhCEIRAhCAQhAABIQhCEIQhCAQhAIR1rvvp6ds4a69Vtj1Yxltr1PHtnzznHu1xtjbzxnGVAAAAAAAAAAAAAAAAAAAAAAAAGHJ1PDx+rkxf07vPyeJ6Y8uPTO33z5PLyddz79tvhx/wBXn2zttm7bZzn7uYQhCEIQhAAAAAAAhCEIQhCEfWhCEIkIQhAIQgEIQEhCEIQhCEIQhCEAhCAQhAAAhCEIQiQhCAQhCBCEAhCEIkIQhCEIQhCBCEIEIQAhCEIQhCEIQhCGM5x54zGmvPya/O+7XXqsZ9WM49muvJrt2zh2AAAAAAAAAAAAAAAAAAAAAA52211xds4xj75efk67g07bZ2z9nm5PEt8+WmmNfvnzebk6jl5PVybZx+jIAACEIQhEhCEIAAAAAAEIQj6xCEAAEhCEIQhCEIQCEIEIQgQhCEIQhCEIkIQhAIQgQhCAkIQhCEIQhCEIQgEIQCEIAAEIQhCJCEIQCEIBCEAhCEIkI715N9e22WuvU5+rF9muvNpt857u7jPZQAAAAAAAAAAAAAAAAAAAZb8/Hx+rfGHm38R0x5aa529/J5+TrufftnGuPs82222+btnOc/dAAAAEhCEIQhCEIQhCEAAAAAB9aEIQhCAQhAIQgEIQhCEIQhCEIQiBCEAhCAACQhCEIQhCEAhCAQhAIQhCEIQhCESEIQCEIQIQgJCEIQhCEIQhCEIQCEIEIRcZzr2znDTXn3x3mWmvPrnvjOGuNtdu2cZUAAAAAAAAAAAAAAAAAc52xri5zjGPux36zh0+r4s/Z5t/Eds+WmmMffLzb9Rzcnq5Mz9MeTIhCAAAAAAEIQhCEIQhCJCEIQAAAH14AAEIQhCESEIQgQhCBCEAhCEIkIQhCEIQhCAQhAhCEAhCEIQhCEIQhCEQIQgEIQAAiQhCEIQhCEAhCAQhAIQhCEIQhCJCEIQ+bvXl31+f7tMdR/y1/ZpryabdsuwAAAAAAAAAAAAAABnvzcfH698Yeffr+PHo1zt/Dz79bzb9s41x9nn2223zdts598pCEIQhCEIQhEAAAAAAAEhCEIQhCEIQAH14QhAIQgEIQEhCEIQhCEIQhCEAhCAQhAAAhCEIRIQhCAQhAIQgEIQhEhCEIQhCEIBCEAhCAQhCEIQhCEIQhCIEIQgQhAABIQjrG22vbOcO8c22O8y0xza5+zvGcZ7ZqgAAAAAAAAAAAAmc4xi5zjDDfq+LT6rn7MN+vzn0aYx98vPv1HLyd98z9MeTIACEIQiQhCEIQhCEIAAAAAAQhCEIQhCEIQhCPrgCQhCEIQhCEAhCECEIBCEIQhCEIQiQhCEAhCBCEICQhCEIQhCEIQhCAQhAhCEAAIQhCEIkIQhAIQgEIQCEIQiQhCEIQhCEAhCAQhDHl2d45dsff3d45sfPDvG+u3bLoAAAAAAAAAAHG/Lpp6tsYeffrdMenGdv4Yb9by7ema+zDbfffN22zn3y5AAAAAACEIQhCJCEIAAAAAAEIQhEhCEI+xAIQgEIQCEIQhCEIQhCEIRAhCAQhAABIQhCEIQhCAQhAIQgEIQhCEIQhEhCEIBCEAhCAkIQhCEIQhCEIQgEIQgQhAAAhCEIQiQhCEHWNtsdsu8cufnh1jk1z847wAAAAAAAAJnOMYuWW/U8Wnfe+3mw367P0a/nLz78/Lv33zjH6Y8mZEhCEAAAAAAEhCEIQhCEIQhCEAAAAAAAB9gIQhCEIkIQgEIQgQhAIQhCJCEIQixIQhAIQhAhCAQhCEIQhCEIQhCEQIQgQhCAAESEIQhCEIQgEIQIQhAIQhCEIQhCJCEIQCEIBCEBIQhCEIRcXHzdY32x383eOTHs6xnGe2VAAAAAAcbcmmnq2xhjv1nHj04zsw36vk29M1Y7b7b+e2c598uQAIkIQhCEIQhAAAAAAhCEIQhCEIkIQhAAAAAAfYhCBCEICQhCEIQhCEIQhCAQhAIQgAAQhCEIkIQhAIQgEIQCEIQiQhCEIQhCEAhCAQhAIQhCEIQhCEIQhECEIBCEAAEhCEIQhCEIBCEIEIQFxtnHzdY5P1w6xtjPzdAAAAnbuz26jj077X2Yb9Z/w1/OWO3Ucu/fbOPbyZ+ee6AAAAEIQhCEIQhCEIQiAAAAAAAkIQhCEIQhCAAA+xCEIQhCEIQIQhAhCECEIQhCEIQhEhCEAhCECEICQhCEIQhCEIQhCECEIQIQgAAQhCEIRIQhCAQhAhCEAhCEIkIQhCEIQhAIQgEIQCEIQhCEIQhCEIRBcZzjs6xvn54XG+Ft7KAOdt9dfVnGGO3VaY7XZjt1e+fTjGrHbfff1bZykIQhEhCEIAAAAAEIQhEhCEIQhCEIAAAAAEIQhCEIQhCEIQj64AAAAAAAAAAAACQhCEIQhCEIEIQgQhCBCEIQhCEIRIQhCAQhAIQgJCEIQhCEIQhCEIBCEAhCAABCEIQhEhCEAhCECEIBCEIRIQhFXG2f1X4v1c7c/Hr32/Zjt1f/AB1/dltz8m31T2Zd+4AJCEIQhCEIQhCEIAAAAAAAQhCEIRIQhAAAAAAhCEIkIR9cAAAAAAAAAAAAAAAAAAAAAAAAAAEhCEIQhCEIBCEIQhCBCEIQhCEIQiQhCEAhCBCEICQhCEIQhCEIQhCAQhATOdde+cYZ7c+mO1yy26jbPbGMM9tttu+c5cwgAAAAAQhCEIQhCESEIQgAAAAAkIQhCEIQhCEIQgAAAAD1cfiPS8vp5tcZ/TbyenG2NsXGcZx9nQAAAAAAAAAAAAAAAAAAAAAAAAAAAAAAAAAAAAAAAJCEIQhCEIQIQhAhCECEIQhCDjbk0177YZbdTj6cfuz25t9vnPZnnz75IQhCEIQhCEIgAAAAAAJCEIQhCEIQAAAAAIQhCEIQhCESEIQgAD4Udacm/Hm6b7a+2Y9fH4n1fH5f+T48f9sV6+PxzP8Ad4fzrl6uPxbpeTvvnTP/AGw9fHzcXL6OTXb2y0AAAAAAAAAAAAAAAAAAAAAAAAAAAAAAAAAAAAAAAAAAAAAAATOcYx55xhltz6Y7XLPbqNs9sYwz232275zlyAABCEIRIQhCEIQhCEAAAAACEIQhCEIQhCEIRAAAAAAASEIQhCEI+HCEIQxcZuMxvx9b1PF6ebafpnNevj8Z59fXppv/ABl6ePxng29em+n84evj63p+X0cut/TOY9GM4z54UAAAAAAAAAAAAAAAAAAAAAAAAAAAAAAAAAAAAAAAAAAAAcbcmuvfOGe3UY+nH7s9uXfb5z2cZue+UhCEIAAAAAAAQhCEIkIQhAAAAAAhCEIkIQhCLEhCEAAAAACEIQhHwoQhAIQhHenNy8Xo5NtfbL1cfivVad9sb4/7Yevj8Zx25OLOPvrl6uPxPpeT+58Of+2I9OnJpvi6767e2a7AAAAAAAAAAAAAAAAAAAAAAAAAAAAAAAAAAAAAAAAABM5xjv5OM82mPnfZnnnz8sYwz232275yhCEIQhCEIQiQhCEAAAAAEhCEIQhCEIQhCEAAAAAAAhCEIQiQhCEAAAAHwoQhCEIQIQhBcZzrm4znGfs9HH1/U8fbl2zj9NvN6uPxjlx/uceu3t5PTx+L9Pt6/i0z98V6+PqeHl9HLrn7VsAAAAAAAAAAAAAAAAAAAAAAAAAAAAAAAAAAAAAAAOc764z55w4zzY+WKzzy75+c9nGc5z3AAAAAASEIQhCEIQgAAAAAQhCEIQhCESEIQgAAAAAkIQhCEIQhCEIQgAPhwhAIQhCEIQhCJCEa8fUc3F6OXbX8vVx+K9Rp6vh3x98PVx+MaZ9fFtj2zXp4+v6bk7cuMZ/TbyejXbXbF12xnH2y6AAAAAAAAAAAAAAAAAAAAAAAAAAAAAAAAAAAAEzmd3OeTXH3cZ5s/LEcZ22275cwhCAAAAAABCEIQhCEIQhCEIgAAAAAAARIQhCEIQhCAAAAABCEIQhCEIRI+JCEIQhEIQhAhCEAAXXbbTN12zrn7Zejj8Q6rj/u52x/2xXq4/Ftsf7nFjP31zHp08T6bf1Z20z98PTpz8XJ6OTXb2y1AAAAAAAAAAAAAAAAAAAAAAAAAAAAAAAAAATO2Md8uM8uPliuc8m2fnHGbnvkIQhCEIkIQhAAAAAAAhCEIkIQhCEIQhAAAAAACEIQhCEIQhCEIQiAAAAAAAPhwhAhCEIkIQhCEIQhAhCECDbj6rn4vTy7Y+1r06eK8+vr113/ABHo08W4s+vTbX283p063p+T08uvtnyejGcZxcZuFAAAAAAAAAAAAAAAAAAAAAAAAAAAAAAAHOd9cfNxnl/TDnO2c98oAAkIQhCEIQhCEIQgAAAAAAAEIQhCESEIQgAAAAABCEIRIQhCEWJCEIAAAAAD4cIQhCBCEIEIQgABCEIQhEhCO9OTfjzdN9tfbL0aeI9Tp9eNsf8AbD08fi2f7nF+dcvRp4j0+/1Z1/yw9OnLpyYum+u3tl2AAAAAAAAAAAAAAAAAAAAAAAAAAAACZzjHfLnO+Pliuc77Z+yZue6AAAAAQhCEIQhCEIkIQhAAAAAAEhCEIQhCEIQhCEAAAAAAAAIQhCEIkIQgAAAPiQgQhCEIQhCESEIQgQhCBCEIJCEIQi4uPPGY206vqOP08u3tnzenTxXlx69Ndv4ejTxTh28ttdtf5ejTqeHk9PLr+8bd+ygAAAAAAAAAAAAAAAAAAAAAAAAAJnbGHOd/smc5z80hCEIQiAAAAAAACQhCEIQhCEAAAAAACEIQhCEIQiQhCEAAAAAAEhCEIQhCEIQhCEAB8WEIQiEIQgQhCAAJCEIQhCEIQCEIQhCO9OXk4/Rvtr7ZejTxHqNO+cbe+Ho08V1+vjzj2y9GnX9Pv/c+H/LEejXbXbH9O2M+2XQAAAAAAAAAAAAAAAAAAAAAAAlxg+LDnOydyEIRIQhCEWJCEIAAAAAAEIQhCEIQhCEIQiAAAAAAAAkIQhCEIQhAAAAAAAhCEIQhCEIkIQj4sCEIQiQhCEIQhCEAhCBCEIBCEIQhCEIQhCEMZzrm4znGfs306zqNO3JnPv5vRp4pvj18eufbMejTxLg29Xxa++G+nPxcno5Nc/lqAAAAAAAAAAAAAAAAAAAAAlPi+yXKAAAABCEIQhEhCEAAAAAACEIQiQhCEIQhCEAAAAAACEIQhCEIQhCEIRAAAAAAAAiQhCPiwhCBCEIEIQgABCEIQhEhCEIEIQgQhAIQhCJCNNOfl4/TybY/L0aeI82vq+Hb3w9GniemfXpnHt5t9Os4N+3JjHv5N8Zxti4zjPsoAAAAAAAAAAAAAAAAAAVPM80AAAAABIQhCEIQhCEIQhAAAAAAAAIQhCEIkIQhAAAAAAAhCEIkIQhCEIQhAAAAAACEIR8UhCEIQhCEIRIQhAIQhCEIQEhCEIQhCEIQhCECEIQIQi67ba+euc49st9Ot59Prvv5t9PE8/Xx4z7Zb6+IcG3fOdffD0acvHv6d9c+2XYAAAAAAAAAAAAAAAAJCEIQhCEIAAAAAAQhCEIQhCESEIQgAAAAAAkIQhCEIQhCEIQgAAAAAAAEIQhCESEIQgAAAAA+NCEQIQgQhCAAJCEIQhCEIQgQhCBCEIEIQhCEIQhEhCEIebXTqObT08m37t9PEOXHqxjb+G+viPHn16ba/wAt9Op4d+3Jj8+TW4z2UAAAAAAAAAAAAAAAAAAAAAAAAAAABIQhCEIQhCEAAAAAAhCEIQhCEIRIQhCAAAAAAJCEIQhCEIQhCEIAAAD40IQhEhCEIQhCEIQIQhAhCAQhCEIQhCEIQhCIQhCBCEIAAkIR3rvvp6ds49sttOt59e+2NvfDfTxH/nx/tltp1vDt9Xw++G+u+u/nrtjPtl0AAAAAAAAAAAAAAAAAAAAAAAAAAAAAAAAAAAAAAAAJCEIQhCEIQAAAAAAhCEIQhCEIkIQhAAfGhAIQhCEIQAAhCEIQiQhCECEIQIQhAhCEIkIQhCEIQhAhCECEIQx5eePJrp1PNp25M/nzba+Ib49WuM+3k316/iz6sba/y215+Lf0765/LUAAAAAAAAAAAAAAAAAAAAAAAAAAAAAAAAAAAAAAAAAAAAAAAAAAAAIkIQhCEIR8eEIQhCEIQiQhCECEIQIQhBIQhCEIQhCEIQhAhCECEIQAAhCEIQiQhCBHevJyaenfbH5ba9bza95t74ba9fj6tM49stteq4dvrnv5NsbY288Zxn2UAAAAAAAAAAAAAAAAAAAAAAAAAAAAAAAAAAAAAAAAAAAAAAAAAAAAAB8iEQhCEIQhAACJCEIQhCEIQIQhAhCECEIQhCEIQiQhCEAhCBCEICQhCEIQi4znXzxnOPZrr1PNp23zn3822vXbfVpjPs2163i273X3w215dN/TvjP5dgAAAAAAAAAAAAAAAAAAAAAAAAAAAAAAAAAAAAAAAAAAAAAAAAAAAA+TCEIkIQhCEIQhAhCECEIQIQhCEIQhCEIQhEIQhAhCEAASEIQhCEIQhAhCECEIQd68vJp6d9sfltr1nLjvNmuvXa59Wuce3m116ji27b4/Pk1xnGe3moAAAAAAAAAAAAAAAAAAAAAAAAAAAAAAAAAAAAAAAAAAAAAAAAAAD5UCEIQIQhAACEIQhEhCEIEIQgQhCBCEIRIQhCEWJCEIBCEIQhCAQhCEIQhCEIQhCIRcbba9s5x7Za69Tza/Vfdtr1ufq0/bLTXq+LbvnOPfDbXfXbttjP5dAAAAAAAAAAAAAAAAAAAAAAAAAAAAAAAAAAAAAAAAAAAAAAAAAA+ZCEIQhCESEIQgQhCBCEIJCEIQhCEIQhCEIBCECEIQAAhCEIQiQhCECEIQIQhAhCEIkIQiu9ebk17b5a69Zvj1Yxlrr1mmfVjOGuvNx7dt8NAAAAAAAAAAAAAAAAAAAAAAAAAAAAAAAAAAAAAAAAAAAAAAAAB80hCECEIQABIQhCEIQhCBCEIEIQgQhCEIQhCEIkIQhAhCECEICQhCEIQhCEIQhCBCEIEIQgLrttr6ds4/LXXqeXHfOM++GuvWY+rX9mmvU8W31T3aY2xt2zjLoAAAAAAAAAAAAAAAAAAAAAAAAAAAAAAAAAAAAAAAAAAAAAAHz4RIQhCEIQhCBCEIEIQgQhCEIQhCEIQhCIEIQhCEIAARIQhCEIQhCBCEIEIQgQhCEIQhCESEIQgQi4uOzvXm5dfqz+WmvV7Y9WuMtdeq0z3uGmvJpt22w7AAAAAAAAAAAAAAAAAAAAAAAAAAAAAAAAAAAAAAAAAAAAAHghCECEIQAAhCEIQiQhCAQhAhCECEIQiQhCEIQhCEIEIQgQhCBCEIQhCEIQhCEIhCEIEIQgACQhCEI6xvtr22zhpr1PJjvMtdeqx9WucezTXn49vqnu7xnGe2aoAAAAAAAAAAAAAAAAAAAAAAAAAAAAAAAAAAAAAAAAAAAPFCEIQhEhCEIEIQgQhCCQhCEIQhCEIQhCECEIQIQgABCEIQhEhCEIEIQgQhCBCEIRIQhCEIQhCAQhCEIQgEMZzjtnOGmvNvr9V92mOpz89cfh3r1Gme9w0xvrt22xl0AAAAAAAAAAAAAAAAAAAAAAAAAAAAAAAAAAAAAAAAAAPHCECEIQABIQhCEIQhCAQhCEIQgEIQhCEIQhEhCEIEIQgQhCCQhCEIQhCEIQhCBCEIEIQgABCEIQhEhCEIEIR1jffXttlpjqN8d8Yy7x1Oue+ucNMcum31Y/Lrv2UAAAAAAAAAAAAAAAAAAAAAAAAAAAAAAAAAAAAAAAAHkhCEIQhCEIEIQgQhCAQhCEIQhCEIQhCIQhCBCEIAAkIQhCEIQhAhCECEIQIQhCEIQhCESEIQCEIQhCEBIQhCEIQhCLjOcds5w7xzcmPnfdpjqP11/Z3jm0z857u8bYz2zjKgAAAAAAAAAAAAAAAAAAAAAAAAAAAAAAAAAAAAA425NNPPbbXX3zHn38R6TT+9jP8Aj5vNv43w49HHvt7+Tzb+N8ufRxaa++a8+/ifWb/3fh/xxH3IQIQhAACEIQhCJCEIQIQhAhCAQhCESEIQhCEIQgQhCBCEIEIQhCEIQhCEIQiBCECEIQABIQhCEIQhCECEIQIQhAhB1jk3x22y7xz7Y74xl3jn1z3xnDrHJrntth2AAAAAAAAAAAAAAAAAAAAAAAAAAAAAAAAAAJnOMeecxhv1nT8fq5tMfmvPv4v0uvbO2/th59/G/wDhw/8A9Zeffxbqtu2ddPbDzb9X1PJ6uffP5jHNz55zSEIR+ohCEIRIQhAIQhCEIQEhCEIQhCEIQhCECEIQIQhAACEIQhEhCEIEIQgQhCBCEIRIQhCEIQhCECEIQIQhAhCEIQhCEIQhCEQhCEXGc47Zzh3jl3x93WOf9dXeOXTPznu6xnGfmoAAAAAAAAAAAAAAAAAAAAAAAAAAAAAADPfm4+P1766++Xn38S6XT+78X+OK8+/jHHj0cW+3vmPPv4zz58tOPTX+Xn38R6vfvy5x/j5PPtyb7+e++23vmuYBAAhH6iBCEIAAkIQhCEIQhCBCEIEIQgQhCEIQhCESEIQgQhCBCEIJCEIQhCEIQhCEIBCEIQhCAAEIQhCESEIQgQhCBCEIEIQhEhCEIQi+brG++Pm6xy5nnjDrHLrn9cO8bYz2zhQAAAAAAAAAAAAAAAAAAAAAAAAAAAc52xri5zjHvljv1vT8fq5tPxmvPv4t0+uP6cb7e2I8+/jO1/o4sY/yyw38U6rfttrr7Yeffqefk9fNvn8se/fJCEIQhCEAAj9RCEIQhCEAhCEIQhAIQhCEIQhCEIQhEIQhAhCEAASEIQhCEIQgEIQIQhAhCEIQhCEIRIQhCBCEIEIQgkIQhCEIQhCEIQgQhCBCEIAC4znHbOXWOTbHfzdY5cfPDrG+ufm6AAAAAAAAAAAAAAAAAAAAAAAABlvz8XH6+TTHvlhv4l02n152/wAcMN/GNMeji2z75jz7+LdRn066a/ivPv13U79+bbHt5MdtttvPbbOffLmABAAhCEIQhCEI/UQhCEAAIQhCEIkIQhAhCECEIQIQhCJCEIQhCEIQIQhAhCECEIQhCEIQhCEIQiEIQgQhAACJCEIQhCEIQIQhAhCECEIQhCEIQhEhCEAhCEPPHZ1jfbHzdY5M/PC45MezrGcZ7ZUAAAAAAAAAAAAAAAAAAAABzttrrj+rbGPfLDfrun078uufbzYb+LcOPTrvt/DDfxffPo4tce+a8+/iPVb/AF/D7YYb83Lyevk3z75cQhCEIQhCEIgBAAgAP1MIQiQhCECEIQIQhBIQhCEIQhCEIQhAhCECEIQAAhCEIQiQhCAQhCEIQgEIQhEhCEIQhCEIEIQgQhCBCEIQhCEIQhCEIhCEIEIQgACQhCEIQhHWM5x81xvn5xcb4+eHWNsZ+agAAAAAAAAAAAAAAAAAnbuy36nh4/Vy6Y/LHfxLp9e2223th59/FsfRxZ/OWO/ifUben4NfbDDfq+o39XLt+MxjnOdvPOc590IQAgAQhCESEIQhCEIQhAB+pAAAEhCEIQhCEIQhCEIQhCEIQhCEIQhCJCEIQCEIEIQgJCEIQhCEIQhCEIEIQgQhCAAEIQhCJCEIQIQhAhCECEIQiQhCEIQhCEIEIQhCEIBCEIdu2Vxtn9V+P9cOviwtAAAAAAAAAAAAAABxtyaaerbXHvljv13Taf3MZ9vNhv4rxY9Om23v5Md/FOXPo49ce/mw36/qd/7k9sRhtyb7+rfbPvlxCEIQhCEIQhCABAAgAABCEIR+nAAAAAAAAAAAAAAAAASEIQhCEIQhCEIQhCEIEIQhCEIQhEhCEIEIQgQhCCQhCEIQhCEIQhCAQhCEIQgABCEIQhEhCEIEIQgRblfiz+i/FguP1UAAAAAAAAAABM5xjzzmMd+q4NMf1cuv71lt4lwa9s7be2GG/iufo4v3yx38R6jbtnXX2ww26jn39XLtn8svPPcAgAQAIQhCEIQhCJCEIQAIAEAH6YAAAAAAAAAAAAAAAAAAAAAAAAAAAAAAEhCEIQhCEIEIQhCEIQhCEIQhCEIRIQhCBCEIEIQgkIQhCEIQhCEIvmXK37FwoAAAAAAADjbl49PVvrj3yx26/p9frvthjt4npj08e2ffMYbeJ8ufTrrr/LHbrOo378mce3kx222289ts598pCEIQhCEIQhCEQAIAQAABIQhCEIQhCEAfpQAAAAAAAAAAAAAAAAAAAAAAAAAAAAAAAAAAAAAAAAAAAEhCEIQhCEIQhCEIQhCEIQhCECqAAAAA5ztjXHnnGPdlt1XBp35dfx5stvEeHHpxtt+GO3ie30ceMe+WO3X9Rt22xr7YY7c3Lv6uTbP5ZkACABAAhCEIkIQhCEIQhAAgAQAIQhCEIQj9GAAAAAAAAAAAAAAAAAAAAAAAAAAAAAAAAAAAAAAAAAAAAAAAAAAAAAAAAADPbm49PVvrj8sduu4Ne22dvbDLbxLX6ePOffLHbxDmz6ca6/hlt1XPv35Nvx5Ms5zt3znPvlEhCEIQhCEIQhCEACABAAACEIQhCJCEIAEIAQB+iAAAAAAAAAAAAAAAAAAAAAAAAAAAAAAAAAAAAAAAAAAAAAAAAAAAAAAABznbXXvtjHvllt1XDr35MZ9vNlt4hx49Ou2f4ZbeIb59OmuPfNY7dZz7fXPbDLbk5N/Vvtn3y4hCABCAEACEIQhCEIQhEhCEIAEAIQASEIQhCEIQhCEIQH6EAAAAAAAAAAAAAAAAAAAAAAAAAAAAAAAAAAAAAAAAAAAAAAAAAAAAAE7d2eefi078muPyz263hx2znb2wx28Q/wCPH++We3W82e3w6+2GO3Ucu3fk2/dnnz7+YBCEIQhCEIQhCEIgBAAgAACQhCEIQhCEACABAAhCEIQhH3wAAAAAAAAAAAAAAAAAAAAAAAAAAAAAAAAAAAAAAAAAAAAAAAAAAAHO2+uvq2xj3yy26vh1+u+zLbr9MdtNs/wz267kz6ddcfyy26rm2+uezLO223q2zn3y5hCEIAEACABCEIRIQhCEIQhCABAAgAQhCEIQhCEIQhCEQAgBAYcf+peXH+7waZ/xznD18X+pOl2/3OPl0/Ferj8W6Dl7dRrjP6beX/17NOXj5cf0cmu3tmtAAAAAAAAAAAAAAAAAAAAAAAAAAAAAAAAAAAAAAAAAAAAAAAAAS4x3Z7c/Fr33wz263jx2+LP4Zbdfn6eP98s9us5s9s4x7YZbcvJt332z+XAAkIQhCEIQhCEIQhAAgBAAACEIQhCJCEIQAIAEACEIQiQhCEIQhCEH5uEIuM51zcZzjP2ejj8Q6zi9HU8mP/avZx+P9dp6ttN8f9tf/wAevj/1Jn+702M/fTZ6uP8A1B0e+P6//Jp763/49fH4j0fLj+jqeP2zmf8A16dd9dsXXbGcfbNdgAAAAAAAAAAAAAAAAAAAAAAAAAAAAAAAAAAAAAAAAAAAAOM8mmvfbGPyz26ri1+q+2Ge3Xa/TpnPuz263kz2xrhnt1HLt33z+PJlnOc985z7pCEIQhCAEIAQgBCEIQhCEIRIQhCABAAgAkIQhCEIQhCEIQgAQAIAAAQj81CEWBCEI61330zdd9tc/bMerj8T63i9PU75983/AOvXx/6g6vX168e/viPXx/6j1z/u9PnH+O1enj8c6HfHnvtp/lr/APj18fW9Ny+jqOPP/s9GM4zi4yoAAAAAAAAAAAAAAAAAAAAAAAAAAAAAAAAAAAAAAAACZzjHfOMM88/Fr9ePwz26zjx2xnLPbrNvp0xj3y426rlz88Y9sMtuTfbvtnP5cwgEIQCEIQhCEIQhCEIQiBCEAhCAACQhCEIQhCEIBCEAhCAQhCEIQhCEIkIQhAAgBCPzUIRYQiwhCEIpCNNObl4/PTl319ts4erj8W67j7c+dv8ALGMvVx/6g6nX18XHv7XD1cf+oeHP+5w76/45xl6tPF+i5P73w5/7Yzh6tOp4OX0cum3tthsAAAAAAAAAAAAAAAAAAAAAAAAAAAAAAAAAAAAADjPJpr33xj8s89VxY+ec+2HGesx9Omfzlnnq+TPaYZ7c3Jt33y4zc985yBCEIQiQhCEAIQAhACEIQiQhCEIQhCEAIQAhACEIQhCEIQhCEIRAIQAhAAASEIQhCEIR+bhCEWBFhCEIQiwhCLAa8fU8/F/t83Jr7bZerj8Y63Tvy42/y1w9XH4/y4/3OHTb/HMerj8e6bb16cmn8vTp4p0XJjy59cf5eT06cvHyY/o3129s1oAAAAAAAAAAAAAAAAAAAAAAAAAAAAAAAAACZ2xjvnGHGefjx9WPwzz1WnyxnLjPV7fLXGGeeo5M/VPZxnbbbvtnP5cwgBCAQhAEhCEIQhCEIQhCEAIQCEIAAEIQhCESEIQgBCAEIAQhCESEIQhCEIQgBCAEIAQhH5uEIQhCLCEIsCEIQiwhFhCEIuLjzxnOPZvx9Z1PF6Ofkx/7V6uPxrrNO+2u/vr/APj08fj239zgxn/HZ6dPG+l2x/VjfTP3xXo4/EOk5PTz6fnM/wDr067a7Yuu2M4+2XQAAAAAAAAAAAAAAAAAAAAAAAAAAAAADjPJpjvthxnqOPGPK5/DjPVfpr+7jPU8me0x+HGeTfbvtlx7gACQhCEIQhCEIBCEAhACEIQhCEIQhEhCEIBCEAhAEhCEIQhCEIQhCEIBCEAhAAAIQhCEIkIQhAIR+bhCLCBAhFIRYQhCEUhFhCEIQiwhF1221zdds49svRp1/V8fp59/zm//AF6tPGup19WNN/fEejTx3Hbfgz/67PTp4v0m/fbbT/LV6dOs6fl9HNpn8tsZxnFx5qAAAAAAAAAAAAAAAAAAAAAAAAAAmdsY75xhxnm48fVfZxnqdflrnLjPU7Z7Yxhxnm5M/V+zjOc575zlIQhCEIAQgBCAEIQhCEIQhCEIQiAQgBCAAAkIQhCEIQhACEAIQAhCEIQhCEIkIQhACEAIQBIQhCEIQj83CEWEIsIQhCKQiwhCEIRYQiwgQIRSEIsI605OTTP9G+2vtmPTp4j1enbmzn/LzejTxrqNfXppt/D06eN8WfXxbY9s16NPE+l3/uZ1/wAsZejTqOHk9HLpt7bNQAAAAAAAAAAAAAAAAAAAAABM5xju5zyaY77Yc559cdsZy4z1Gflr+7nPNyZ+eMOM77577ZcgQhAAAhCEIQiQhCEAIQCEIAQhCESEIQhCEIQgBCAQhACEIQhCEIQhCEIRAIQCEIAAESEIQhCEIQgBCAQhH5uEIQikIsIEIsIQhFhAhCEUgsIEIQikFhCEIRppz83H6OXfX2y9OnifV6f3Pi/yw308a5Mevi1z7Zj06eMcO3r031/lvp4j0u/93GPfyejXk039G2u3tl2AAAAAAAAAAAAAAAAAACZ21x3zhxnm0x865zz4+WHOefbPbGMOM8m+fqy5zc985IQhCEIRIQhACEIBCAJCEIQhCEIQhCEIQCEIBCAAAQhCEIRIQhCAQhAIQAhCEIkIQhCEIQhCAQhAIQAhCEIQhCEIQhCPzSwhCEIsIQiwIQhCKQiwhCBFgQWEIQIRYQhFgEIQi48vPDbTqefj9HLvj8t9PFOq177a7e+Ho08Y2+vixn2y308W4NvVjfX8Vvp1vT79ubX8+TfXbXb07Yz7ZdAAAAAAAAAAAAAAAlndznk1x80zza/LGcuc82fljDjPLvn5xM52z3zlIgEIAQgAAJCEIQhCEIQAhACEAIQhCEIQhCJCEIQAhACEASEIQhCEIQhCEIQAhACEAAAhCEIRIQhCAEIAQgBCEfm4QhFgQhCEWEIsIQhCKQiwhAgQiwhCLAhCEIsIRYQhCEWBBcZzrm4znHtlvp1nUadubb85rfXxPqNfV8G3vhtp4vj6+LP4y9GnifT7d87a++G+nVcHJ6eXTP5a4zjPbzUAAAAAAAAAABM7Yx3zhznk1x93Oeb9MJnl2+2HGd9s/PKAQhCESEIQhCEIQgBCAQhACEIQhCEIQhCEIRAIQCEIAAESEIQhCEIQgBCAQhACEIQhCEIQiQhCEAIQCEIAkIQhCEIQhCEIQgBH5shFIQiwhAhFIRYQhCEIsCCwgQhCEWBFhCEIRSEWEIEIsSLCEIsHWu++nnrttj2y2063qdO3LnPv5t9PFObHq102/hvr4rp9fHtj2zW2viPTbfXnX3w215+Lf08mufy1AAAAAAAEs7pnfX9UzyY+WMuc8mf0TO+2fm5zc98pCEIQgBCEAhAAAIQhCEIkIQgBCEAhACEIQiQhCEIsSEIQAhCAQgBCEIQhCEIQhCEIgEIQCEAABIQhCEIQhCAEIQCEAIQhCEIQj83AgQikFhCEIQiwIRYBAhFIQiwhAhFIRYQgQhFhCCwgQIQiwIsIQhHevLyaenk2x7Zb69f1Gv8Acvvhtr4nyYz/AFceufbyba+KcWfVptr/AC2167p9v7mMe+I215NN/Tvrn2y7AAABPix+qfHhM8n6YT49nOc5z80AhACEIQhCEIQiQhCEAIQAhAEhCEIQhCEIQhCEAIQAhAAAIQhCESEIQgBCAEIAQhCESEIQhCEIQgBCAEIAQhCEIQhCEIQhCIBCAEI/NwWECEIRYQhFgQhCEWEIsIECEUhFhCEIQiwIRYEIQhFIEWEIEIpCLCECEIsMfZprz8unp5Nsfltr1/Ua99sbe+G2vie31ceM+2W2viPDn1Y21/DXTq+HftyY/Pk1xtjbtnGfbLqp8WP1T48fonx5T4s/qhCEIQhCEIQiAQgEIQAASEIQhCEIQhACEAhCAEIQhCEIQhEhCEIAQgEIQBIQhCEIQhCEIQhACEAhCAABCEIQhEhCEIAQgEIQAhCEIkIQhCEIR+ciRYQhFgQhCEWEIsIQhCLAgsIEIQiwhCLAhCEIsIRYQhCEIpCLCEIQhFhCEWBCEIRYQi4uO2c49mmvPy69uTb92uvW82O8z74a69f/AMuP9stdet4c97j3w015uLbtvr+7TEz2AhACEIQiQhCEIsSEIQAhCAQgBCEIQhCEIQhCEIgEIQCEAABIQhCEIQhCAEIQCEAIQhCEIQhCESEIQAhCAQgCQhCEIQhCEIQhCAEIQCEAAfmyBCEWBFhCEIRQiwhAgsIEIRYECEIsIRYQIQiwILCBCEIsIRYQIEIpCLCEIQiwhFhCEIuM7a9s5x7Za69Rza9t8/nzaa9dyY741y1167X6tM49stNer4dvqzj3w115NNseW+ufy6AIQAhAAAIQhCESEIQgBCAEIAQhCESEIQhCEIQgBCAEIAQhCEIQhCEIQhCIBCAEIAACQhCEIQhCEAIQAhACEIQhCEIQiQhCEAI/NkWEIEIpCLCECEIsIQWECBCKQIsIQhCKEWEIQgsIQhFhCEIQiwhFhCEIRSEWEIQhCLCEIsCEIRXWu++vp2zj8tNep5tfrvu0163fHfXGWuvW6Z767Yaa9Tw7fXPdpjbXbttjP5dQiQhCEAIQCEIAkIQhCEIQhCEIQgBCAQhAAAhCEIQiQhCEAIQCEIBCEIRIQhCEIQhCEAIQCEIAQhCEIQhCEIQhCIBCAQhAABIQhH5uKQiwhCEIRYQhFgQhCEUhCLCEIQikIsIQhCEWEIRYEIQhFhCLCEIQikIsIEIQiwhFhAgQiwhFhCEIRSEWDrXk317b7Y/LTXquXHzxn3w0163P1aY/GWmOr4898bYaY5+Lbtvj8tMZxntnGVEhCEIQhCEIBCEAhCAQhCEIQhCESEIQgBCEAhAEhCEIQhCEIQhCEAIQgEIAABCEIQhEhCEAIQgEIAQhCESEIQhFiQhCAEIQCEfm4QhFhAiwIQhCKQiwgQIsCEWEIQIRYQhFgQhCKQhFhCEIsCCwgQhFhCEWBCEIRYQiwhCEIpCLCEIQhFhCLCBFxcdvJ1jl5Ne2+WmOq5Md5n8NMdX+un7Zd46njz3uPw0xy8e3bfDrGb2UAAAAAAAAAAACJCEIQhCEIQCEIBCEAhCEIQhCEIkIQhACEAIQBIQhCEIQhCEIQhACEAIQAACEIQhEhCPzkIECEIsIRYQIQihBYQIEIsIRYQIEIpCLCEIQikIsIQhCEWEIRYEIQhFhCLCEIQikFhAhCLCEIsIQhCEWEIsIQhCKYznHbOcNMc3Jjttl3jqd8d8Yy7x1WPnrn8O8dRx5+c98O8b657bYdAAAAAAAAAAAAAAAAAAAAAAAAkIQhCEIQhCAQhAhCAQhCEIQhCEIkIQhACEAhCAJCPzhCEWEIQhFIRYQhCEIsIQiwhCEIRYQiwhCEIpCLCEIQhFhCLCBAhFIRYQhCEWEIsIQhCEWEIRYEIQhFhCLCEIQikIsIEIsSLCEWLjOcds5w6xzcmPqvu7x1G2O+MZd46jHzxnDrHNpn5u8bYz2zjKgAAAAAAAAAAAAAAAAAAAAAAAAAAAAAAAAAACQhCEIQhCEAj83CEUgsIQhCEWEIRYEIQhFhCLCEIQikIsIEIsIQhFhAhCEWEIsIQhCKQiwhCEIRYQhFgQhCKQhFhCEIsCCwgQhFhCEWBCEIRYQiwhB1jbbHbbLrHLvj511jnz88Osc2vzxnDrHJpn5usZxnsoAAAAAAAAAAAAAAAAAAAAAAAAAAAAAAAAAAADPbm49PVya498sdvEel0782ufbzYb+MdNr2xvt7YYbeN/8OD99mG/jPU7enXTX8Vhv4j1m/fmzj2xjDuEIEIsIQiwIQhFIRYQhCEWBBYQhCEWEIRYEIQhFhCLCEIQikIsIQhCEWEIsIECEUhFhCEIRSEWEIQhCLCEIsCEIQiwhFhCEIRSCwgQhFguNtsfPLrHJt9nWOX9cOv8Aya/d1jbGe2VAAAAAAAAAAAAAAAAAAAAAAAAAAAAAAAAcbcmmnq31x75Y7df02vfm1/Hmx28W6fXtjfb2ww28Zx9PDn87Md/Fuoz6ddNfxWO/iHV7/wB3OPbEYbc3Lv6uXfPvnLOEIQhHrhFhAgQikIsIQhCKQiwhCEIRYQhFgQhCEWEIsIQhCKQWECEIsIQiwIQhCLCEWEIQhFIRYQhCEIsIRYQIEIpCLCEIQiwhFhCEIQiwhCLAhCEIsIRfyuNs4+a/+TP6Osb/AK4X48LcZ+agAAAAAAAAAAAAAAAAAAAAAAAAAAA425NNcf1ba498sdut6fX+7r+PNnt4n0+vb49vbDDbxfH08Wfzllt4pz59Oumv4rHbr+q2/u5x7YjHbm5d/Vy75/8AZnKQhCEIQhEhCPTCLCEWEIQhFIRYQhCEIsIRYQIEIpCLCEIQiwhFhCEIQiwhCLAhCEIsIRYQhCEUgsIEIsIQhFhAhCEWEIsIQhCKQiwhCEIRYQhFgQhCKQiwhCEIsCCwhCL5rc/qfFlfi+y3CgAAAAAAAAAAAAAAAAAAAAAAA5zvrr32xj3yy26vg178uv482W3iPBr2ztt7YZbeK4+nizn3yx28T5s+nTTH8stuu6nb+5PbDLbm5d/Vyb5/LOXuQhEhCEIQhCJCEIQhHohCEUgsIEIsIQhFhCEIQiwhFhCEIRSEWEIQhCLCEIsCEIRSEWEIQhFgQWEIQhFhCEWBCEIRYQiwhCEIpCLCBCEIsIRYQIEIpCLCEIQikIsIQhCEWEIRYEIQhFXzKoAAAAAAAAAAAAAAAAAAADnO2uvfbGPfLLbquHXvy6/jzcZ6/gx89s+2GW3iWv08ec++WW3iPLn06a4/llt1vUbfXPbDLbl5d/VybZ/LjOL3IRIQhCEIkIQhCEIQhCEIQhG0IQhCLCEIsCEIQiwhFhCEIRSEWECEIRYQiwgQIRSEWEIQhFIRYQhCEIsIQiwIQhCLCEWEIQhFILCBCEWEIRYEIQhFhCLCEIQikIsIQhCEWEIsIECEUhFhCEIRQAAAAAAAAAAAAAAAAABM7Yx3zjDPbqOLXvya/uz263h1+ec+2Ge3iGv08ec++WW3X8me2muP5Z7dZz57bT2wz25eXbvybZ/LjOL380hCEIQhCJCEIfCQhCEIQiQhCEIQhEhGsIRYEIQhFhCLCEIQikFhAhCLCEIsCEIQiwhFhCEIRSEWEIQhCLCEWECBCKQiwhCEIsIRYQhCEIsIQiwIQhCLCEWEIQhFILCBCLCEIRYQhCEIsIRYQhCEUAAAAAAAAAAAAAAAAAATOcY75xhxnm4te++v7s89XxY+ec+2HGeu1+Wmc+7PPXb/AC11wzz1XPn6p7YcbcvLt35Nv3Z5xnPfJCESEIQhCEIQhCEIQhEhCEIQiQhCEIQhCEI6hFIRYQhCEUhFhCEIQiwhCLAhCEIsIRYQhCEUgsIEIRYQhFhCEIQiwhFhCEIRSEWEIQhCLCEIsCEIRSEWEIQhFgRYQhCEIsIQiwIQhCLCEWEIQhFAAAAAAAAAAAAAAAAAAEznGHOeXj1774/dxnqeLHzzn2w4z1mvy1zlxnq9/lrjDPPU8ufqxj2w4zy8m3ffb93GbnvlIQhCEIfCQhCEIQhCESEIQ+EhCESEIQhCEIQhCJCEIfCRYQhFIRYQhCEIsIQiwIEIpCLCEIQiwIsIQhCEWEIRYEIQhFhCLCEIQikIsIEIsSLCEWECBCLCEWEIQhFIRYQhCEIsIQiwIQhCLCEWEIQiwAAAAAAAAAAAAAAAAAACuc8mmO+2HGefjx87+HOepx8tc5cZ6rb5a4cZ6jkz88Y/DjPJyZ775/dznGc98pCEIQhCEIQhEhCEIQhCJCEIQhCEIQhCEIQhEhCEIQiQhCEIQgQixIsIRYQIEIsIRYQhCEUhFhCEIQiwhCLAhCEUhCLCEIRYEFhAhCLCEIsCEIQiwhFhCEIRSEWEIQhCLCEWECBCKQiwhCEIoAAAAAAAAAAAAAAAAAADnO+uO+2HOebTHzc558fLGXOefPyxhznm5M/PGPw5zvvnvtlzm575SEIQ+EhCEIQiQhCEIRIQhCEIfCQhCEIQhCESEIQ+EhCESEIQhCEIQhCJHMIRYEIQhFhCLCEIQikIsIQhCEWEIsIECEUhFhCEIRSEWEIQhCLCEIsCEIQiwhFhCEIRSCwgQhFhCEWEIQhCLCEWEIQhFAAAAAAAAAAAAAAAAAAATO2Md84c55NcfNM8uPljLnPNn5YTPLvn9MOc7b577Zc+ee+SEIQhCEIkIQhCEIRIQhCEIQhCEIRIQhCEIQiQhCEIQhCEIQhCEIRIQhCEIkZwhFhCLCEIQikFhAhCLCEIsCEIQiwhFhCEIRSEWEIQhCLCEWECBCKQiwhCEIsIRYQhCEIsIQiwIQhCLCEWEIEIoAAAAAAAAAAAAAAAAAACXH6p8WP1Pjwnx5/RPj2S7frlzM5IQiQhCHwkIQiQhCEIQhCEPhIQhCEIkIQhCESEIQhCEIQhCEIQhCJCEIQhCESEIQhCEIxhCEWEIsIQhCEWEIRYEIQhFhCLCEIQikIsIEIsIQhFhAhCEWEIsIQhCKQiwhCEIRYQhFgQhCKQhFhCEIsAAAAAAAAAAAAAAAAAAAAqUuf0S5Tz/UhCESEIQhCJCEIQhCEIQhCEIQiQhCEIQhCJCEIfCQhCEIQiQhCEIQhEhCEIQhCEIQhCEIQiQhGEIQhCEWEIRYEIQikIsIQhCLAgsIQhCLCEIsCEIQiwhFhCEIRSEWECEIRYQiwgQIRSEWEIQhFAAAAAAAAAAAAAAAAAAAAAAASEIQhCEIQhCEIQhCJCEIfCQhCJCEIQhCEIQhCEIQiQhCEIRIQhCEIQhCEIQhCEIkIQhCEIRIQhHmhCLCBAhFIRYQhCEUhFhCEIQiwhCLAhCEIsIRYQhCEUgsIEIRYQhFgQhCEWEIsIQhCKAAAAAAAAAAAAAAAAAAAAAAAAAAAAAAAAAAAAAAAkIQhCEIQhCEIQhCESEIfCfCQhEhCEIQhCEIfCQhCEeOEIsIRYQhCEUhFhCEIQiwhFhAgQikIsIQhCLCEWEIQhCLCEIsCEIQiwhFhCBCKAAAAAAAAAAAAAAAAAAAAAAAAAAAAAAAAAAAAAAAAAAAAAAAAAAAAAAAkIR44QhCKQWECEIsIQiwhCEIRYQiwhCEIpCLCEIQhFhCEWBCEIpCLCEIQigAAAAAAAAAAAAAAAAAAAAAAAAAAAAAAAAAAAAAAAAAAAAAAAAAAAAAAAAAA8kIQhCEWEIRYEIQhFhCLCEIQikIsIEIsSLCEWECBCLCEWEIQhFAAAAAAAAAAAAAAAAAAAAAAAAAAAAAAAAAAAAAAAAAAAAAAAAAAAAAAAAAAAAAeWEIRYEIQikIRYQhCLAgsIEIRYQhFgQhCEWEIsIQhCKAAAAAAAAAAAAAAAAAAAAAAAAAAAAAAAAAAAAAAAAAAAAAAAAAAAAAAAAAAAAAAAPMQikIsIQhCKQiwhCEIRYQhFgQhCEWEIsIQhFgAAAAAAAAAAAAAAAAAAAAAAAAAAAAAAAAAAAAAAAAAAAAAAAAAAAAAAAAAAAAAAAAADCEIQikIsIQhCEWEIsIECEUhFhCEIRQAAAAAAAAAAAAAAAAAAAAAAAAAAAAAAAAAAAAAAAAAAAAAAAAAAAAAAAAAAAAAAAAAAAB//2Q==&quot;,&quot;width&quot;:&quot;1920&quot;,&quot;height&quot;:&quot;960&quot;,&quot;x&quot;:0,&quot;y&quot;:0}" math="0" shadow="0">
      <root>
        <mxCell id="WIyWlLk6GJQsqaUBKTNV-0" />
        <mxCell id="WIyWlLk6GJQsqaUBKTNV-1" parent="WIyWlLk6GJQsqaUBKTNV-0" />
        <mxCell id="zkfFHV4jXpPFQw0GAbJ--0" value="User" style="swimlane;fontStyle=1;align=center;verticalAlign=top;childLayout=stackLayout;horizontal=1;startSize=26;horizontalStack=0;resizeParent=1;resizeLast=0;collapsible=1;marginBottom=0;rounded=0;shadow=0;strokeWidth=1;labelBackgroundColor=none;fillColor=#99CCFF;fontSize=15;fontColor=#FFFFFF;" parent="WIyWlLk6GJQsqaUBKTNV-1" vertex="1">
          <mxGeometry x="225" y="134" width="162" height="346" as="geometry">
            <mxRectangle x="230" y="140" width="160" height="26" as="alternateBounds" />
          </mxGeometry>
        </mxCell>
        <mxCell id="zkfFHV4jXpPFQw0GAbJ--1" value="id : int" style="text;align=left;verticalAlign=top;spacingLeft=4;spacingRight=4;overflow=hidden;rotatable=0;points=[[0,0.5],[1,0.5]];portConstraint=eastwest;fillColor=#99CCFF;fontStyle=0;fontSize=13;" parent="zkfFHV4jXpPFQw0GAbJ--0" vertex="1">
          <mxGeometry y="26" width="162" height="26" as="geometry" />
        </mxCell>
        <mxCell id="zkfFHV4jXpPFQw0GAbJ--2" value="first_name :String" style="text;align=left;verticalAlign=top;spacingLeft=4;spacingRight=4;overflow=hidden;rotatable=0;points=[[0,0.5],[1,0.5]];portConstraint=eastwest;rounded=0;shadow=0;html=0;fillColor=#99CCFF;fontStyle=0;fontSize=13;" parent="zkfFHV4jXpPFQw0GAbJ--0" vertex="1">
          <mxGeometry y="52" width="162" height="26" as="geometry" />
        </mxCell>
        <mxCell id="zkfFHV4jXpPFQw0GAbJ--3" value="last_name :String&#xa;" style="text;align=left;verticalAlign=top;spacingLeft=4;spacingRight=4;overflow=hidden;rotatable=0;points=[[0,0.5],[1,0.5]];portConstraint=eastwest;rounded=0;shadow=0;html=0;fillColor=#99CCFF;fontStyle=0;fontSize=13;" parent="zkfFHV4jXpPFQw0GAbJ--0" vertex="1">
          <mxGeometry y="78" width="162" height="26" as="geometry" />
        </mxCell>
        <mxCell id="HOmJjbsXenuw1tQYVShR-0" value="nickname :String&#xa;" style="text;align=left;verticalAlign=top;spacingLeft=4;spacingRight=4;overflow=hidden;rotatable=0;points=[[0,0.5],[1,0.5]];portConstraint=eastwest;rounded=0;shadow=0;html=0;fillColor=#99CCFF;fontStyle=0;fontSize=13;" parent="zkfFHV4jXpPFQw0GAbJ--0" vertex="1">
          <mxGeometry y="104" width="162" height="26" as="geometry" />
        </mxCell>
        <mxCell id="HOmJjbsXenuw1tQYVShR-2" value="status :int&#xa;" style="text;align=left;verticalAlign=top;spacingLeft=4;spacingRight=4;overflow=hidden;rotatable=0;points=[[0,0.5],[1,0.5]];portConstraint=eastwest;rounded=0;shadow=0;html=0;fillColor=#99CCFF;fontStyle=0;fontSize=13;" parent="zkfFHV4jXpPFQw0GAbJ--0" vertex="1">
          <mxGeometry y="130" width="162" height="26" as="geometry" />
        </mxCell>
        <mxCell id="zkfFHV4jXpPFQw0GAbJ--4" value="" style="line;html=1;strokeWidth=1;align=left;verticalAlign=middle;spacingTop=-1;spacingLeft=3;spacingRight=3;rotatable=0;labelPosition=right;points=[];portConstraint=eastwest;" parent="zkfFHV4jXpPFQw0GAbJ--0" vertex="1">
          <mxGeometry y="156" width="162" height="8" as="geometry" />
        </mxCell>
        <mxCell id="zkfFHV4jXpPFQw0GAbJ--5" value="addMessage()" style="text;align=left;verticalAlign=top;spacingLeft=4;spacingRight=4;overflow=hidden;rotatable=0;points=[[0,0.5],[1,0.5]];portConstraint=eastwest;fillColor=#99CCFF;fontStyle=0;fontSize=13;" parent="zkfFHV4jXpPFQw0GAbJ--0" vertex="1">
          <mxGeometry y="164" width="162" height="26" as="geometry" />
        </mxCell>
        <mxCell id="HOmJjbsXenuw1tQYVShR-11" value="deleteMessage()" style="text;align=left;verticalAlign=top;spacingLeft=4;spacingRight=4;overflow=hidden;rotatable=0;points=[[0,0.5],[1,0.5]];portConstraint=eastwest;fillColor=#99CCFF;fontStyle=0;fontSize=13;" parent="zkfFHV4jXpPFQw0GAbJ--0" vertex="1">
          <mxGeometry y="190" width="162" height="26" as="geometry" />
        </mxCell>
        <mxCell id="HOmJjbsXenuw1tQYVShR-12" value="updateMessage()" style="text;align=left;verticalAlign=top;spacingLeft=4;spacingRight=4;overflow=hidden;rotatable=0;points=[[0,0.5],[1,0.5]];portConstraint=eastwest;fillColor=#99CCFF;fontStyle=0;fontSize=13;" parent="zkfFHV4jXpPFQw0GAbJ--0" vertex="1">
          <mxGeometry y="216" width="162" height="26" as="geometry" />
        </mxCell>
        <mxCell id="HOmJjbsXenuw1tQYVShR-13" value="readMessage()" style="text;align=left;verticalAlign=top;spacingLeft=4;spacingRight=4;overflow=hidden;rotatable=0;points=[[0,0.5],[1,0.5]];portConstraint=eastwest;fillColor=#99CCFF;fontStyle=0;fontSize=13;" parent="zkfFHV4jXpPFQw0GAbJ--0" vertex="1">
          <mxGeometry y="242" width="162" height="26" as="geometry" />
        </mxCell>
        <mxCell id="HOmJjbsXenuw1tQYVShR-16" value="addChannel()" style="text;align=left;verticalAlign=top;spacingLeft=4;spacingRight=4;overflow=hidden;rotatable=0;points=[[0,0.5],[1,0.5]];portConstraint=eastwest;fillColor=#99CCFF;fontStyle=0;fontSize=13;" parent="zkfFHV4jXpPFQw0GAbJ--0" vertex="1">
          <mxGeometry y="268" width="162" height="26" as="geometry" />
        </mxCell>
        <mxCell id="HOmJjbsXenuw1tQYVShR-15" value="deleteChannel()" style="text;align=left;verticalAlign=top;spacingLeft=4;spacingRight=4;overflow=hidden;rotatable=0;points=[[0,0.5],[1,0.5]];portConstraint=eastwest;fillColor=#99CCFF;fontStyle=0;fontSize=13;" parent="zkfFHV4jXpPFQw0GAbJ--0" vertex="1">
          <mxGeometry y="294" width="162" height="26" as="geometry" />
        </mxCell>
        <mxCell id="HOmJjbsXenuw1tQYVShR-14" value="updateChannel()" style="text;align=left;verticalAlign=top;spacingLeft=4;spacingRight=4;overflow=hidden;rotatable=0;points=[[0,0.5],[1,0.5]];portConstraint=eastwest;fillColor=#99CCFF;fontStyle=0;fontSize=13;" parent="zkfFHV4jXpPFQw0GAbJ--0" vertex="1">
          <mxGeometry y="320" width="162" height="26" as="geometry" />
        </mxCell>
        <mxCell id="zkfFHV4jXpPFQw0GAbJ--17" value="Message" style="swimlane;fontStyle=1;align=center;verticalAlign=middle;childLayout=stackLayout;horizontal=1;startSize=26;horizontalStack=0;resizeParent=1;resizeLast=0;collapsible=1;marginBottom=0;rounded=0;shadow=0;strokeWidth=1;fillColor=#99CCFF;strokeColor=#6c8ebf;fontSize=15;fontColor=#FFFFFF;" parent="WIyWlLk6GJQsqaUBKTNV-1" vertex="1">
          <mxGeometry x="737" y="160" width="160" height="208" as="geometry">
            <mxRectangle x="550" y="140" width="160" height="26" as="alternateBounds" />
          </mxGeometry>
        </mxCell>
        <mxCell id="zkfFHV4jXpPFQw0GAbJ--18" value="id:int" style="text;align=left;verticalAlign=top;spacingLeft=4;spacingRight=4;overflow=hidden;rotatable=0;points=[[0,0.5],[1,0.5]];portConstraint=eastwest;fillColor=#99CCFF;" parent="zkfFHV4jXpPFQw0GAbJ--17" vertex="1">
          <mxGeometry y="26" width="160" height="26" as="geometry" />
        </mxCell>
        <mxCell id="zkfFHV4jXpPFQw0GAbJ--19" value="message :String" style="text;align=left;verticalAlign=top;spacingLeft=4;spacingRight=4;overflow=hidden;rotatable=0;points=[[0,0.5],[1,0.5]];portConstraint=eastwest;rounded=0;shadow=0;html=0;fillColor=#99CCFF;" parent="zkfFHV4jXpPFQw0GAbJ--17" vertex="1">
          <mxGeometry y="52" width="160" height="26" as="geometry" />
        </mxCell>
        <mxCell id="zkfFHV4jXpPFQw0GAbJ--20" value="date_message : date" style="text;align=left;verticalAlign=top;spacingLeft=4;spacingRight=4;overflow=hidden;rotatable=0;points=[[0,0.5],[1,0.5]];portConstraint=eastwest;rounded=0;shadow=0;html=0;fillColor=#99CCFF;" parent="zkfFHV4jXpPFQw0GAbJ--17" vertex="1">
          <mxGeometry y="78" width="160" height="26" as="geometry" />
        </mxCell>
        <mxCell id="HOmJjbsXenuw1tQYVShR-25" value="channel_id_fk : int" style="text;align=left;verticalAlign=top;spacingLeft=4;spacingRight=4;overflow=hidden;rotatable=0;points=[[0,0.5],[1,0.5]];portConstraint=eastwest;rounded=0;shadow=0;html=0;fillColor=#99CCFF;" parent="zkfFHV4jXpPFQw0GAbJ--17" vertex="1">
          <mxGeometry y="104" width="160" height="26" as="geometry" />
        </mxCell>
        <mxCell id="HOmJjbsXenuw1tQYVShR-26" value="user_id_fk : int" style="text;align=left;verticalAlign=top;spacingLeft=4;spacingRight=4;overflow=hidden;rotatable=0;points=[[0,0.5],[1,0.5]];portConstraint=eastwest;rounded=0;shadow=0;html=0;fillColor=#99CCFF;" parent="zkfFHV4jXpPFQw0GAbJ--17" vertex="1">
          <mxGeometry y="130" width="160" height="26" as="geometry" />
        </mxCell>
        <mxCell id="HOmJjbsXenuw1tQYVShR-27" value="status :int" style="text;align=left;verticalAlign=top;spacingLeft=4;spacingRight=4;overflow=hidden;rotatable=0;points=[[0,0.5],[1,0.5]];portConstraint=eastwest;rounded=0;shadow=0;html=0;fillColor=#99CCFF;" parent="zkfFHV4jXpPFQw0GAbJ--17" vertex="1">
          <mxGeometry y="156" width="160" height="26" as="geometry" />
        </mxCell>
        <mxCell id="zkfFHV4jXpPFQw0GAbJ--21" value="status :int" style="text;align=left;verticalAlign=top;spacingLeft=4;spacingRight=4;overflow=hidden;rotatable=0;points=[[0,0.5],[1,0.5]];portConstraint=eastwest;rounded=0;shadow=0;html=0;fillColor=#99CCFF;" parent="zkfFHV4jXpPFQw0GAbJ--17" vertex="1">
          <mxGeometry y="182" width="160" height="26" as="geometry" />
        </mxCell>
        <mxCell id="HOmJjbsXenuw1tQYVShR-19" value="" style="endArrow=none;html=1;rounded=0;entryX=0;entryY=-0.154;entryDx=0;entryDy=0;entryPerimeter=0;fontSize=10;strokeColor=#99CCFF;" parent="WIyWlLk6GJQsqaUBKTNV-1" target="HOmJjbsXenuw1tQYVShR-25" edge="1">
          <mxGeometry width="50" height="50" relative="1" as="geometry">
            <mxPoint x="389" y="260" as="sourcePoint" />
            <mxPoint x="724.04" y="259.996" as="targetPoint" />
          </mxGeometry>
        </mxCell>
        <mxCell id="HOmJjbsXenuw1tQYVShR-20" value="Channel" style="swimlane;fontStyle=1;align=center;verticalAlign=middle;childLayout=stackLayout;horizontal=1;startSize=26;horizontalStack=0;resizeParent=1;resizeLast=0;collapsible=1;marginBottom=0;rounded=0;shadow=0;strokeWidth=1;fillColor=#99CCFF;fontSize=15;fontColor=#FFFFFF;" parent="WIyWlLk6GJQsqaUBKTNV-1" vertex="1">
          <mxGeometry x="741" y="532" width="160" height="134" as="geometry">
            <mxRectangle x="550" y="140" width="160" height="26" as="alternateBounds" />
          </mxGeometry>
        </mxCell>
        <mxCell id="HOmJjbsXenuw1tQYVShR-21" value="id:int" style="text;align=left;verticalAlign=top;spacingLeft=4;spacingRight=4;overflow=hidden;rotatable=0;points=[[0,0.5],[1,0.5]];portConstraint=eastwest;fillColor=#99CCFF;" parent="HOmJjbsXenuw1tQYVShR-20" vertex="1">
          <mxGeometry y="26" width="160" height="26" as="geometry" />
        </mxCell>
        <mxCell id="HOmJjbsXenuw1tQYVShR-22" value="name :String" style="text;align=left;verticalAlign=top;spacingLeft=4;spacingRight=4;overflow=hidden;rotatable=0;points=[[0,0.5],[1,0.5]];portConstraint=eastwest;rounded=0;shadow=0;html=0;fillColor=#99CCFF;" parent="HOmJjbsXenuw1tQYVShR-20" vertex="1">
          <mxGeometry y="52" width="160" height="26" as="geometry" />
        </mxCell>
        <mxCell id="HOmJjbsXenuw1tQYVShR-23" value="creation_date : date" style="text;align=left;verticalAlign=top;spacingLeft=4;spacingRight=4;overflow=hidden;rotatable=0;points=[[0,0.5],[1,0.5]];portConstraint=eastwest;rounded=0;shadow=0;html=0;fillColor=#99CCFF;" parent="HOmJjbsXenuw1tQYVShR-20" vertex="1">
          <mxGeometry y="78" width="160" height="26" as="geometry" />
        </mxCell>
        <mxCell id="HOmJjbsXenuw1tQYVShR-24" value="status :int" style="text;align=left;verticalAlign=top;spacingLeft=4;spacingRight=4;overflow=hidden;rotatable=0;points=[[0,0.5],[1,0.5]];portConstraint=eastwest;rounded=0;shadow=0;html=0;fillColor=#99CCFF;" parent="HOmJjbsXenuw1tQYVShR-20" vertex="1">
          <mxGeometry y="104" width="160" height="26" as="geometry" />
        </mxCell>
        <mxCell id="HOmJjbsXenuw1tQYVShR-28" value="" style="endArrow=none;html=1;rounded=0;entryX=0.475;entryY=1.038;entryDx=0;entryDy=0;entryPerimeter=0;exitX=0.456;exitY=0.012;exitDx=0;exitDy=0;exitPerimeter=0;fillColor=#99CCFF;strokeColor=#99CCFF;" parent="WIyWlLk6GJQsqaUBKTNV-1" source="HOmJjbsXenuw1tQYVShR-20" target="zkfFHV4jXpPFQw0GAbJ--21" edge="1">
          <mxGeometry width="50" height="50" relative="1" as="geometry">
            <mxPoint x="537" y="410" as="sourcePoint" />
            <mxPoint x="587" y="360" as="targetPoint" />
          </mxGeometry>
        </mxCell>
        <mxCell id="HOmJjbsXenuw1tQYVShR-31" value="&lt;font color=&quot;#ffffff&quot;&gt;DIAGRAMME DE CLASSE&lt;/font&gt;" style="text;html=1;align=center;verticalAlign=middle;resizable=0;points=[];autosize=1;strokeColor=none;fillColor=none;fontSize=24;fontStyle=1;fontColor=#000000;" parent="WIyWlLk6GJQsqaUBKTNV-1" vertex="1">
          <mxGeometry x="406" y="33" width="313" height="41" as="geometry" />
        </mxCell>
        <mxCell id="HOmJjbsXenuw1tQYVShR-32" value="1" style="text;html=1;align=center;verticalAlign=middle;resizable=0;points=[];autosize=1;strokeColor=none;fillColor=none;" parent="WIyWlLk6GJQsqaUBKTNV-1" vertex="1">
          <mxGeometry x="1244" y="228" width="30" height="30" as="geometry" />
        </mxCell>
        <mxCell id="HOmJjbsXenuw1tQYVShR-34" value="1,1" style="text;html=1;align=center;verticalAlign=middle;resizable=0;points=[];autosize=1;strokeColor=none;fillColor=#99CCFF;fontSize=15;" parent="WIyWlLk6GJQsqaUBKTNV-1" vertex="1">
          <mxGeometry x="819" y="498" width="40" height="30" as="geometry" />
        </mxCell>
        <mxCell id="HOmJjbsXenuw1tQYVShR-37" value="1,1" style="text;html=1;align=center;verticalAlign=middle;resizable=0;points=[];autosize=1;strokeColor=none;fillColor=#99CCFF;fontSize=15;" parent="WIyWlLk6GJQsqaUBKTNV-1" vertex="1">
          <mxGeometry x="393" y="228" width="40" height="30" as="geometry" />
        </mxCell>
        <mxCell id="HOmJjbsXenuw1tQYVShR-38" value="&lt;font style=&quot;font-size: 10px;&quot;&gt;1 user peut être rattaché à un ou plusieurs messages : relation 1,n&lt;/font&gt;" style="text;html=1;align=center;verticalAlign=middle;resizable=0;points=[];autosize=1;strokeColor=none;fillColor=#99CCFF;" parent="WIyWlLk6GJQsqaUBKTNV-1" vertex="1">
          <mxGeometry x="421" y="271" width="312" height="26" as="geometry" />
        </mxCell>
        <mxCell id="HOmJjbsXenuw1tQYVShR-39" value="&lt;font style=&quot;font-size: 15px;&quot;&gt;1&lt;/font&gt;,&lt;font style=&quot;font-size: 16px;&quot;&gt;n&lt;/font&gt;" style="text;html=1;align=center;verticalAlign=middle;resizable=0;points=[];autosize=1;strokeColor=none;fillColor=#99CCFF;" parent="WIyWlLk6GJQsqaUBKTNV-1" vertex="1">
          <mxGeometry x="693" y="228" width="40" height="30" as="geometry" />
        </mxCell>
        <mxCell id="HOmJjbsXenuw1tQYVShR-40" value="&lt;font style=&quot;font-size: 10px;&quot;&gt;1 canal peut avoir aucun message ou plusieurs : relation 0,n&lt;/font&gt;" style="text;html=1;align=center;verticalAlign=middle;resizable=0;points=[];autosize=1;strokeColor=none;fillColor=#99CCFF;" parent="WIyWlLk6GJQsqaUBKTNV-1" vertex="1">
          <mxGeometry x="819" y="404" width="285" height="26" as="geometry" />
        </mxCell>
        <mxCell id="HOmJjbsXenuw1tQYVShR-41" value="0,n" style="text;html=1;align=center;verticalAlign=middle;resizable=0;points=[];autosize=1;strokeColor=none;fillColor=#99CCFF;fontSize=15;" parent="WIyWlLk6GJQsqaUBKTNV-1" vertex="1">
          <mxGeometry x="815" y="371" width="40" height="30" as="geometry" />
        </mxCell>
        <mxCell id="peIPpT6Ml4G2kYUwzs3Y-0" value="&lt;font style=&quot;font-size: 10px;&quot;&gt;1 message ne peut avoir que un utilisateur : relation 1,1&lt;/font&gt;" style="text;html=1;align=center;verticalAlign=middle;resizable=0;points=[];autosize=1;strokeColor=none;fillColor=#99CCFF;" vertex="1" parent="WIyWlLk6GJQsqaUBKTNV-1">
          <mxGeometry x="391" y="194" width="264" height="26" as="geometry" />
        </mxCell>
        <mxCell id="peIPpT6Ml4G2kYUwzs3Y-1" value="&lt;font style=&quot;font-size: 10px;&quot;&gt;1 message ne peut appartenir que à un canal : relation 1,1&lt;/font&gt;" style="text;html=1;align=center;verticalAlign=middle;resizable=0;points=[];autosize=1;strokeColor=none;fillColor=#99CCFF;" vertex="1" parent="WIyWlLk6GJQsqaUBKTNV-1">
          <mxGeometry x="819" y="466" width="277" height="26" as="geometry" />
        </mxCell>
      </root>
    </mxGraphModel>
  </diagram>
</mxfile>
